<mxfile host="app.diagrams.net" modified="2022-11-12T04:03:23.239Z" agent="5.0 (Macintosh; Intel Mac OS X 10_15_7) AppleWebKit/537.36 (KHTML, like Gecko) Chrome/107.0.0.0 Safari/537.36" etag="EURb1v2YL3_U8WmnlgO0" version="20.5.3" type="github">
  <diagram id="prtHgNgQTEPvFCAcTncT" name="Page-1">
    <mxGraphModel dx="1426" dy="793" grid="1" gridSize="10" guides="1" tooltips="1" connect="1" arrows="1" fold="1" page="1" pageScale="1" pageWidth="827" pageHeight="1169" math="0" shadow="0">
      <root>
        <mxCell id="0" />
        <mxCell id="1" parent="0" />
        <mxCell id="FtD8D7uAUO3DL7H2U_zv-48" value="" style="rounded=0;whiteSpace=wrap;html=1;shadow=1;fillColor=#dae8fc;strokeColor=#6c8ebf;" vertex="1" parent="1">
          <mxGeometry x="220" y="440" width="550" height="100" as="geometry" />
        </mxCell>
        <mxCell id="FtD8D7uAUO3DL7H2U_zv-46" value="" style="rounded=0;whiteSpace=wrap;html=1;shadow=1;fillColor=#dae8fc;strokeColor=#6c8ebf;" vertex="1" parent="1">
          <mxGeometry x="220" y="160" width="550" height="100" as="geometry" />
        </mxCell>
        <mxCell id="FtD8D7uAUO3DL7H2U_zv-1" value="gateway" style="rounded=1;whiteSpace=wrap;html=1;fillColor=#f8cecc;strokeColor=#b85450;" vertex="1" parent="1">
          <mxGeometry x="260" y="180" width="120" height="60" as="geometry" />
        </mxCell>
        <mxCell id="FtD8D7uAUO3DL7H2U_zv-2" value="Actor" style="shape=umlActor;verticalLabelPosition=bottom;verticalAlign=top;html=1;outlineConnect=0;fillColor=#e51400;fontColor=#ffffff;strokeColor=#B20000;" vertex="1" parent="1">
          <mxGeometry x="305" y="50" width="30" height="60" as="geometry" />
        </mxCell>
        <mxCell id="FtD8D7uAUO3DL7H2U_zv-5" value="" style="endArrow=classic;startArrow=classic;html=1;rounded=0;" edge="1" parent="1" source="FtD8D7uAUO3DL7H2U_zv-1" target="FtD8D7uAUO3DL7H2U_zv-2">
          <mxGeometry width="50" height="50" relative="1" as="geometry">
            <mxPoint x="320" y="199.28932188134524" as="sourcePoint" />
            <mxPoint x="320" y="149.28932188134524" as="targetPoint" />
          </mxGeometry>
        </mxCell>
        <mxCell id="FtD8D7uAUO3DL7H2U_zv-7" value="gateway" style="rounded=1;whiteSpace=wrap;html=1;fillColor=#f8cecc;strokeColor=#b85450;" vertex="1" parent="1">
          <mxGeometry x="430" y="180" width="120" height="60" as="geometry" />
        </mxCell>
        <mxCell id="FtD8D7uAUO3DL7H2U_zv-8" value="Actor" style="shape=umlActor;verticalLabelPosition=bottom;verticalAlign=top;html=1;outlineConnect=0;fillColor=#e51400;fontColor=#ffffff;strokeColor=#B20000;" vertex="1" parent="1">
          <mxGeometry x="475" y="50" width="30" height="60" as="geometry" />
        </mxCell>
        <mxCell id="FtD8D7uAUO3DL7H2U_zv-9" value="" style="endArrow=classic;startArrow=classic;html=1;rounded=0;" edge="1" parent="1" source="FtD8D7uAUO3DL7H2U_zv-7" target="FtD8D7uAUO3DL7H2U_zv-8">
          <mxGeometry width="50" height="50" relative="1" as="geometry">
            <mxPoint x="490" y="199.28932188134524" as="sourcePoint" />
            <mxPoint x="490" y="149.28932188134524" as="targetPoint" />
          </mxGeometry>
        </mxCell>
        <mxCell id="FtD8D7uAUO3DL7H2U_zv-10" value="gateway" style="rounded=1;whiteSpace=wrap;html=1;fillColor=#f8cecc;strokeColor=#b85450;" vertex="1" parent="1">
          <mxGeometry x="600" y="180" width="120" height="60" as="geometry" />
        </mxCell>
        <mxCell id="FtD8D7uAUO3DL7H2U_zv-11" value="Actor" style="shape=umlActor;verticalLabelPosition=bottom;verticalAlign=top;html=1;outlineConnect=0;fillColor=#e51400;fontColor=#ffffff;strokeColor=#B20000;" vertex="1" parent="1">
          <mxGeometry x="645" y="50" width="30" height="60" as="geometry" />
        </mxCell>
        <mxCell id="FtD8D7uAUO3DL7H2U_zv-12" value="" style="endArrow=classic;startArrow=classic;html=1;rounded=0;" edge="1" parent="1" source="FtD8D7uAUO3DL7H2U_zv-10" target="FtD8D7uAUO3DL7H2U_zv-11">
          <mxGeometry width="50" height="50" relative="1" as="geometry">
            <mxPoint x="660" y="199.28932188134524" as="sourcePoint" />
            <mxPoint x="660" y="149.28932188134524" as="targetPoint" />
          </mxGeometry>
        </mxCell>
        <mxCell id="FtD8D7uAUO3DL7H2U_zv-13" value="game1" style="rounded=1;whiteSpace=wrap;html=1;fillColor=#d5e8d4;strokeColor=#82b366;shadow=1;" vertex="1" parent="1">
          <mxGeometry x="435" y="325" width="120" height="60" as="geometry" />
        </mxCell>
        <mxCell id="FtD8D7uAUO3DL7H2U_zv-19" value="dbserver" style="rounded=1;whiteSpace=wrap;html=1;fillColor=#e1d5e7;strokeColor=#9673a6;" vertex="1" parent="1">
          <mxGeometry x="600" y="460" width="120" height="60" as="geometry" />
        </mxCell>
        <mxCell id="FtD8D7uAUO3DL7H2U_zv-20" value="deal" style="rounded=1;whiteSpace=wrap;html=1;fillColor=#d5e8d4;strokeColor=#82b366;shadow=1;" vertex="1" parent="1">
          <mxGeometry x="260" y="325" width="120" height="60" as="geometry" />
        </mxCell>
        <mxCell id="FtD8D7uAUO3DL7H2U_zv-21" value="" style="endArrow=classic;startArrow=classic;html=1;rounded=0;shadow=1;entryX=0;entryY=0.5;entryDx=0;entryDy=0;" edge="1" parent="1" source="FtD8D7uAUO3DL7H2U_zv-20" target="FtD8D7uAUO3DL7H2U_zv-13">
          <mxGeometry width="50" height="50" relative="1" as="geometry">
            <mxPoint x="440" y="410" as="sourcePoint" />
            <mxPoint x="510.71067811865476" y="360" as="targetPoint" />
          </mxGeometry>
        </mxCell>
        <mxCell id="FtD8D7uAUO3DL7H2U_zv-22" value="dbserver" style="rounded=1;whiteSpace=wrap;html=1;fillColor=#e1d5e7;strokeColor=#9673a6;" vertex="1" parent="1">
          <mxGeometry x="430" y="460" width="120" height="60" as="geometry" />
        </mxCell>
        <mxCell id="FtD8D7uAUO3DL7H2U_zv-23" value="dbserver" style="rounded=1;whiteSpace=wrap;html=1;fillColor=#e1d5e7;strokeColor=#9673a6;" vertex="1" parent="1">
          <mxGeometry x="260" y="460" width="120" height="60" as="geometry" />
        </mxCell>
        <mxCell id="FtD8D7uAUO3DL7H2U_zv-27" value="&lt;font style=&quot;font-size: 20px;&quot;&gt;mysql&lt;/font&gt;" style="ellipse;shape=cloud;whiteSpace=wrap;html=1;fillColor=#fff2cc;strokeColor=#d6b656;" vertex="1" parent="1">
          <mxGeometry x="282.5" y="620" width="697.5" height="180" as="geometry" />
        </mxCell>
        <mxCell id="FtD8D7uAUO3DL7H2U_zv-34" value="后台服务" style="rounded=0;whiteSpace=wrap;html=1;shadow=1;fillColor=#dae8fc;strokeColor=#6c8ebf;" vertex="1" parent="1">
          <mxGeometry x="950" y="200" width="250" height="300" as="geometry" />
        </mxCell>
        <mxCell id="FtD8D7uAUO3DL7H2U_zv-37" value="" style="rounded=0;whiteSpace=wrap;html=1;shadow=1;fillColor=#dae8fc;strokeColor=#6c8ebf;" vertex="1" parent="1">
          <mxGeometry x="800" y="215" width="90" height="280" as="geometry" />
        </mxCell>
        <mxCell id="FtD8D7uAUO3DL7H2U_zv-39" value="inner&lt;br&gt;gateway" style="rounded=1;whiteSpace=wrap;html=1;shadow=1;fillColor=#fad7ac;strokeColor=#b46504;" vertex="1" parent="1">
          <mxGeometry x="815" y="240" width="60" height="60" as="geometry" />
        </mxCell>
        <mxCell id="FtD8D7uAUO3DL7H2U_zv-40" value="inner&lt;br&gt;gateway" style="rounded=1;whiteSpace=wrap;html=1;shadow=1;fillColor=#fad7ac;strokeColor=#b46504;" vertex="1" parent="1">
          <mxGeometry x="815" y="325" width="60" height="60" as="geometry" />
        </mxCell>
        <mxCell id="FtD8D7uAUO3DL7H2U_zv-41" value="inner&lt;br&gt;gateway" style="rounded=1;whiteSpace=wrap;html=1;shadow=1;fillColor=#fad7ac;strokeColor=#b46504;" vertex="1" parent="1">
          <mxGeometry x="815" y="410" width="60" height="60" as="geometry" />
        </mxCell>
        <mxCell id="FtD8D7uAUO3DL7H2U_zv-44" value="" style="endArrow=classic;startArrow=classic;html=1;rounded=0;shadow=1;exitX=1;exitY=0.5;exitDx=0;exitDy=0;entryX=0;entryY=0.5;entryDx=0;entryDy=0;" edge="1" parent="1" source="FtD8D7uAUO3DL7H2U_zv-13" target="FtD8D7uAUO3DL7H2U_zv-37">
          <mxGeometry width="50" height="50" relative="1" as="geometry">
            <mxPoint x="640" y="400" as="sourcePoint" />
            <mxPoint x="690" y="350" as="targetPoint" />
          </mxGeometry>
        </mxCell>
        <mxCell id="FtD8D7uAUO3DL7H2U_zv-47" value="" style="endArrow=classic;startArrow=classic;html=1;rounded=0;shadow=1;entryX=0.5;entryY=1;entryDx=0;entryDy=0;exitX=0.5;exitY=0;exitDx=0;exitDy=0;edgeStyle=orthogonalEdgeStyle;" edge="1" parent="1" source="FtD8D7uAUO3DL7H2U_zv-13" target="FtD8D7uAUO3DL7H2U_zv-46">
          <mxGeometry width="50" height="50" relative="1" as="geometry">
            <mxPoint x="310" y="330" as="sourcePoint" />
            <mxPoint x="360" y="280" as="targetPoint" />
          </mxGeometry>
        </mxCell>
        <mxCell id="FtD8D7uAUO3DL7H2U_zv-49" value="" style="endArrow=classic;startArrow=classic;html=1;rounded=0;shadow=1;exitX=0.5;exitY=0;exitDx=0;exitDy=0;edgeStyle=orthogonalEdgeStyle;entryX=0.5;entryY=1;entryDx=0;entryDy=0;" edge="1" parent="1" source="FtD8D7uAUO3DL7H2U_zv-48" target="FtD8D7uAUO3DL7H2U_zv-13">
          <mxGeometry width="50" height="50" relative="1" as="geometry">
            <mxPoint x="570" y="440" as="sourcePoint" />
            <mxPoint x="490" y="400" as="targetPoint" />
          </mxGeometry>
        </mxCell>
        <mxCell id="FtD8D7uAUO3DL7H2U_zv-51" value="&lt;font style=&quot;font-size: 20px;&quot;&gt;redis&lt;br&gt;&lt;/font&gt;" style="ellipse;shape=cloud;whiteSpace=wrap;html=1;fillColor=#fff2cc;strokeColor=#d6b656;" vertex="1" parent="1">
          <mxGeometry y="115" width="170" height="480" as="geometry" />
        </mxCell>
        <mxCell id="FtD8D7uAUO3DL7H2U_zv-52" value="" style="endArrow=classic;startArrow=classic;html=1;rounded=0;shadow=1;fontSize=20;entryX=0;entryY=0.58;entryDx=0;entryDy=0;entryPerimeter=0;" edge="1" parent="1" source="FtD8D7uAUO3DL7H2U_zv-51" target="FtD8D7uAUO3DL7H2U_zv-46">
          <mxGeometry width="50" height="50" relative="1" as="geometry">
            <mxPoint x="110" y="405" as="sourcePoint" />
            <mxPoint x="180.71067811865476" y="355" as="targetPoint" />
          </mxGeometry>
        </mxCell>
        <mxCell id="FtD8D7uAUO3DL7H2U_zv-53" value="" style="endArrow=classic;startArrow=classic;html=1;rounded=0;shadow=1;fontSize=20;entryX=0;entryY=0.5;entryDx=0;entryDy=0;" edge="1" parent="1" source="FtD8D7uAUO3DL7H2U_zv-51" target="FtD8D7uAUO3DL7H2U_zv-48">
          <mxGeometry width="50" height="50" relative="1" as="geometry">
            <mxPoint x="110" y="405" as="sourcePoint" />
            <mxPoint x="180.71067811865476" y="355" as="targetPoint" />
          </mxGeometry>
        </mxCell>
        <mxCell id="FtD8D7uAUO3DL7H2U_zv-54" value="" style="endArrow=classic;startArrow=classic;html=1;rounded=0;shadow=1;fontSize=20;entryX=0.5;entryY=1;entryDx=0;entryDy=0;" edge="1" parent="1" source="FtD8D7uAUO3DL7H2U_zv-27" target="FtD8D7uAUO3DL7H2U_zv-48">
          <mxGeometry width="50" height="50" relative="1" as="geometry">
            <mxPoint x="507.5" y="629.2893218813452" as="sourcePoint" />
            <mxPoint x="507.5" y="579.2893218813452" as="targetPoint" />
          </mxGeometry>
        </mxCell>
        <mxCell id="FtD8D7uAUO3DL7H2U_zv-56" value="" style="endArrow=classic;startArrow=classic;html=1;rounded=0;shadow=1;fontSize=20;" edge="1" parent="1" source="FtD8D7uAUO3DL7H2U_zv-34">
          <mxGeometry width="50" height="50" relative="1" as="geometry">
            <mxPoint x="879.2893218813452" y="400" as="sourcePoint" />
            <mxPoint x="890" y="350" as="targetPoint" />
          </mxGeometry>
        </mxCell>
        <mxCell id="FtD8D7uAUO3DL7H2U_zv-57" value="" style="endArrow=classic;startArrow=classic;html=1;rounded=0;shadow=1;fontSize=20;entryX=0.5;entryY=1;entryDx=0;entryDy=0;" edge="1" parent="1" source="FtD8D7uAUO3DL7H2U_zv-27" target="FtD8D7uAUO3DL7H2U_zv-34">
          <mxGeometry width="50" height="50" relative="1" as="geometry">
            <mxPoint x="631.25" y="639.2893218813452" as="sourcePoint" />
            <mxPoint x="631.25" y="589.2893218813452" as="targetPoint" />
          </mxGeometry>
        </mxCell>
      </root>
    </mxGraphModel>
  </diagram>
</mxfile>
